<svg width="20" height="18" viewBox="0 0 20 18" fill="none" xmlns="http://www.w3.org/2000/svg">
<path d="M3.76688 3.94481L1.16104 1.33981L2.34021 0.160645L18.8394 16.6606L17.6602 17.839L14.9019 15.0806C13.4362 16.0103 11.7358 16.5026 10.0002 16.4998C5.50688 16.4998 1.76854 13.2665 0.984375 8.99981C1.34273 7.05874 2.31823 5.28556 3.76688 3.94481ZM12.2977 12.4765L11.0777 11.2565C10.6111 11.4797 10.0867 11.5528 9.57682 11.4655C9.06695 11.3782 8.59671 11.1349 8.23093 10.7691C7.86516 10.4033 7.62185 9.93307 7.53456 9.4232C7.44726 8.91333 7.52028 8.38894 7.74354 7.92231L6.52354 6.70231C5.99331 7.50355 5.75627 8.46342 5.85257 9.41939C5.94887 10.3753 6.37258 11.2687 7.05197 11.948C7.73136 12.6274 8.62467 13.0512 9.58063 13.1475C10.5366 13.2438 11.4965 13.0067 12.2977 12.4765ZM6.64521 2.13314C7.68438 1.72481 8.81688 1.49981 10.0002 1.49981C14.4935 1.49981 18.2319 4.73314 19.016 8.99981C18.7607 10.3879 18.1868 11.6978 17.3394 12.8265L14.1227 9.60981C14.2183 8.96616 14.1617 8.30907 13.9576 7.69119C13.7536 7.07331 13.4076 6.51182 12.9475 6.0517C12.4874 5.59158 11.9259 5.24562 11.308 5.04154C10.6901 4.83746 10.033 4.78093 9.38938 4.87648L6.64521 2.13314Z" fill="#B1B1B1"/>
</svg>
