<svg width="114" height="94" viewBox="0 0 114 94" fill="none" xmlns="http://www.w3.org/2000/svg">
<path fill-rule="evenodd" clip-rule="evenodd" d="M25.6243 18.6909L56.2683 2.79998L84.2977 18.6909V26.6363C84.2977 26.95 84.6114 27.2636 84.9252 27.2636C85.239 27.2636 85.5527 26.95 85.5527 26.6363V18.5863C85.5527 18.1682 85.3436 17.8545 85.0298 17.6454L56.7913 1.64998C56.4775 1.44089 56.0591 1.44089 55.7454 1.64998L24.8922 17.6454C24.5784 17.8545 24.3692 18.1682 24.3692 18.5863V26.6363C24.3692 26.95 24.683 27.2636 24.9968 27.2636C25.3105 27.2636 25.6243 26.95 25.6243 26.6363V18.6909ZM25.6243 43.3636C25.6243 43.05 25.3105 42.7363 24.9968 42.7363C24.683 42.7363 24.3692 43.05 24.3692 43.3636V51.5182C24.3692 51.9363 24.5784 52.25 24.8922 52.4591L55.5362 68.35C55.85 68.5591 56.2683 68.5591 56.5821 68.35L85.0298 52.4591C85.3436 52.25 85.5527 51.9363 85.5527 51.5182V43.3636C85.5527 43.05 85.239 42.7363 84.9252 42.7363C84.6114 42.7363 84.2977 43.05 84.2977 43.3636V51.4136L56.0591 67.2L25.6243 51.4136V43.3636ZM102.6 29.6682C102.182 29.6682 102.077 29.8773 102.077 30.4V39.3909C102.077 39.8091 102.287 40.0182 102.705 40.0182C103.123 40.0182 103.333 39.8091 103.333 39.3909V31.9682L111.281 39.8091C111.49 40.0182 111.595 40.1227 111.804 40.1227C112.222 40.1227 112.327 39.9136 112.327 39.3909V30.4C112.327 29.9818 112.118 29.7727 111.7 29.7727C111.281 29.7727 111.072 29.9818 111.072 30.4V37.8227L103.123 29.9818C102.914 29.7727 102.81 29.6682 102.6 29.6682ZM26.5656 33.9545L22.4867 29.9818C22.3821 29.8773 22.1729 29.7727 22.0683 29.7727C21.8591 29.7727 21.65 29.9818 21.65 29.9818C21.5454 30.0863 21.4408 30.2954 21.4408 30.4C21.4408 30.6091 21.5454 30.7136 21.65 30.8182L25.7289 34.8954L21.65 38.9727C21.5454 39.0773 21.4408 39.2863 21.4408 39.3909C21.4408 39.6 21.5454 39.7045 21.65 39.8091C21.7546 39.9136 21.9637 40.0182 22.0683 40.0182C22.2775 40.0182 22.3821 39.9136 22.4867 39.8091L26.5656 35.8363L30.6445 39.8091C30.7491 39.9136 30.9582 40.0182 31.0628 40.0182C31.272 40.0182 31.3766 39.9136 31.4812 39.8091C31.5858 39.7045 31.6903 39.4954 31.6903 39.3909C31.6903 39.1818 31.5858 39.0773 31.4812 38.9727L27.4023 34.8954L31.4812 30.8182C31.5858 30.7136 31.6903 30.5045 31.6903 30.4C31.6903 30.1909 31.5858 30.0863 31.4812 29.9818C31.3766 29.8773 31.1674 29.7727 31.0628 29.7727C30.8536 29.7727 30.7491 29.8773 30.6445 29.9818L26.5656 33.9545ZM1.67383 32.1773C1.67383 31.9682 1.77842 31.8636 1.883 31.7591L3.66098 29.9818C3.66098 29.8773 4.28851 29.7727 4.70686 29.7727C5.33438 29.7727 5.64814 29.7727 4.07933 29.7727H9.51786C9.72704 29.7727 9.83163 29.8773 9.93621 29.9818L11.7142 31.7591C11.8188 31.8636 11.9234 32.0727 11.9234 32.1773V37.5091C11.9234 37.7182 11.8188 37.8227 11.7142 37.9273L9.93621 39.7045C9.83163 39.8091 9.62245 39.9136 9.51786 39.9136H6.7986H4.07933C3.87016 39.9136 3.76557 39.8091 3.66098 39.7045L1.883 37.9273C1.77842 37.8227 1.67383 37.6136 1.67383 37.5091V32.1773ZM2.92887 32.3863V37.1954L4.39309 38.6591H9.30869L10.7729 37.1954V32.3863L9.30869 30.9227H4.39309L2.92887 32.3863ZM40.894 46.9182H42.672C42.7766 46.9182 42.7766 46.9182 42.8812 47.0227C42.9858 47.1273 42.9858 47.1273 42.9858 47.2318V48.0682C42.9858 48.1727 42.9858 48.2773 42.8812 48.2773L42.0445 49.1136C41.9399 49.2182 41.9399 49.2182 41.8353 49.2182H39.639C39.5344 49.2182 39.5344 49.2182 39.4298 49.1136L38.0702 48.2773L37.9656 48.1727C37.9656 48.0682 37.861 48.0682 37.861 48.0682V45.4545C37.861 45.35 37.861 45.2454 37.9656 45.2454L38.8023 44.4091C38.9069 44.3045 38.9069 44.3045 39.0114 44.3045H41.8353C41.9399 44.3045 42.0445 44.3045 42.0445 44.4091L42.8812 45.2454C42.9858 45.35 42.9858 45.35 42.9858 45.4545C42.9858 45.5591 42.9858 45.6636 42.8812 45.6636C42.7766 45.7682 42.7766 45.7682 42.672 45.7682C42.5674 45.7682 42.5674 45.7682 42.4628 45.6636L41.7307 44.9318H39.3252L38.5931 45.6636V47.9636L39.7436 48.6954H41.7307L42.4628 47.9636V47.5454H40.9986C40.7894 47.5454 40.6848 47.4409 40.6848 47.2318C40.6848 47.0227 40.6848 46.9182 40.894 46.9182ZM47.9013 46.9182H48.0059H48.738L49.4702 46.1863V45.5591L48.738 44.8273H45.705V46.8136H47.9013V46.9182ZM49.5747 49.2182L47.9013 47.5454H45.705V49.0091C45.705 49.2182 45.6004 49.3227 45.3913 49.3227C45.1821 49.3227 45.0775 49.2182 45.0775 49.0091V44.6182C45.0775 44.5136 45.0775 44.5136 45.1821 44.4091C45.2867 44.3045 45.2867 44.3045 45.3913 44.3045H48.9472C49.0518 44.3045 49.1564 44.3045 49.1564 44.4091L49.9931 45.2454C50.0977 45.35 50.0977 45.35 50.0977 45.4545V46.2909C50.0977 46.3954 50.0977 46.5 49.9931 46.5L49.1564 47.3363C49.0518 47.5454 48.9472 47.5454 48.8426 47.5454H48.738L49.9931 48.8C50.0977 48.9045 50.0977 48.9045 50.0977 49.0091C50.0977 49.1136 50.0977 49.2182 49.9931 49.2182C49.8885 49.3227 49.8885 49.3227 49.7839 49.3227C49.6793 49.3227 49.5747 49.2182 49.5747 49.2182ZM52.1894 45.2454C52.0848 45.35 52.0848 45.35 52.0848 45.4545V48.0682C52.0848 48.1727 52.0848 48.2773 52.1894 48.2773L53.0261 49.1136C53.1307 49.2182 53.1307 49.2182 53.2353 49.2182H55.85C55.9546 49.2182 56.0591 49.2182 56.0591 49.1136L56.8958 48.2773C57.0004 48.1727 57.0004 48.1727 57.0004 48.0682V45.4545C57.0004 45.35 57.0004 45.2454 56.8958 45.2454L56.1637 44.4091C56.0591 44.3045 56.0591 44.3045 55.9546 44.3045H53.3399C53.2353 44.3045 53.1307 44.3045 53.1307 44.4091L52.1894 45.2454ZM52.7124 47.9636V45.5591L53.4445 44.8273H55.85L56.5821 45.5591V47.9636L55.85 48.6954H53.4445L52.7124 47.9636ZM59.7197 44.6182V47.9636L60.4518 48.6954H62.8573L63.5894 47.9636V44.6182C63.5894 44.4091 63.694 44.3045 63.9032 44.3045C64.1124 44.3045 64.2169 44.4091 64.2169 44.6182V48.0682C64.2169 48.1727 64.2169 48.2773 64.1124 48.2773L63.2757 49.1136C63.1711 49.2182 63.1711 49.2182 63.0665 49.2182H60.4518C60.3472 49.2182 60.2426 49.2182 60.2426 49.1136L59.4059 48.2773C59.3013 48.1727 59.3013 48.1727 59.3013 48.0682V44.6182C59.3013 44.4091 59.4059 44.3045 59.6151 44.3045C59.6151 44.3045 59.7197 44.4091 59.7197 44.6182ZM69.8647 46.9182H66.8316V44.9318H69.8647L70.5968 45.6636V46.2909L69.8647 46.9182ZM66.2041 44.6182V49.0091C66.2041 49.2182 66.3087 49.3227 66.5179 49.3227C66.727 49.3227 66.8316 49.2182 66.8316 49.0091V47.5454H70.0738C70.1784 47.5454 70.283 47.5454 70.283 47.4409L71.1197 46.6045C71.2243 46.5 71.2243 46.5 71.2243 46.3954V45.4545C71.2243 45.35 71.2243 45.2454 71.1197 45.2454L70.283 44.4091C70.1784 44.3045 70.1784 44.3045 70.0738 44.3045H66.5179C66.4133 44.3045 66.4133 44.3045 66.3087 44.4091C66.2041 44.5136 66.2041 44.5136 66.2041 44.6182ZM47.7968 36.0454V39.3909C47.7968 39.8091 47.5876 40.0182 47.1692 40.0182C46.7509 40.0182 46.5417 39.8091 46.5417 39.3909V36.0454L41.3124 30.8182C41.2078 30.7136 41.1032 30.5045 41.1032 30.4C41.1032 30.1909 41.2078 30.0863 41.3124 29.9818C41.4169 29.8773 41.6261 29.7727 41.7307 29.7727C41.9399 29.7727 42.0445 29.8773 42.1491 29.9818L47.1692 34.8954L52.1894 29.9818C52.294 29.8773 52.5032 29.7727 52.6078 29.7727C52.8169 29.7727 52.9215 29.8773 53.0261 29.9818C53.1307 30.0863 53.2353 30.2954 53.2353 30.4C53.2353 30.6091 53.1307 30.7136 53.0261 30.8182L47.7968 36.0454ZM72.3747 35.1045H68.7142C68.2958 35.1045 68.0867 35.3136 68.0867 35.7318C68.0867 36.15 68.2958 36.3591 68.7142 36.3591H71.6426V37.1954L70.1784 38.6591H66.0995L63.7986 37.1954V32.3863L65.2628 30.9227H70.1784L71.7472 32.4909C71.8518 32.5954 72.061 32.7 72.1656 32.7C72.3747 32.7 72.4793 32.5954 72.5839 32.4909C72.6885 32.3863 72.7931 32.1773 72.7931 32.0727C72.7931 31.8636 72.6885 31.7591 72.5839 31.6545L70.8059 29.8773C70.9105 29.7727 70.7013 29.7727 70.5968 29.7727H65.1582C64.9491 29.7727 64.8445 29.8773 64.7399 29.9818L62.9619 31.7591C62.8573 31.8636 62.7527 32.0727 62.7527 32.1773V37.5091C62.7527 37.6136 62.7527 37.6136 62.8573 37.8227C62.9619 37.9273 62.9619 38.0318 63.0665 38.0318L65.7858 39.8091C65.8903 39.9136 65.9949 39.9136 66.0995 39.9136H70.5968C70.8059 39.9136 70.9105 39.8091 71.0151 39.7045L72.7931 37.9273C72.8977 37.8227 73.0023 37.6136 73.0023 37.5091V35.7318C73.0023 35.5227 72.8977 35.4182 72.7931 35.3136C72.6885 35.2091 72.5839 35.1045 72.3747 35.1045ZM83.6702 33.3273H90.2591C90.6775 33.3273 90.8867 33.5363 90.8867 33.9545C90.8867 34.3727 90.6775 34.5818 90.2591 34.5818H83.6702V38.6591H92.0371C92.5601 38.6591 92.6646 38.8682 92.6646 39.2863C92.6646 39.7045 92.4555 39.9136 92.0371 39.9136H83.0426C82.8335 39.9136 82.7289 39.8091 82.6243 39.7045C82.5197 39.6 82.4151 39.3909 82.4151 39.2863V30.2954C82.4151 30.0863 82.5197 29.9818 82.6243 29.8773C82.7289 29.7727 82.938 29.6682 83.0426 29.6682H92.0371C92.4555 29.6682 92.6646 29.8773 92.6646 30.2954C92.6646 30.7136 92.4555 30.9227 92.0371 30.9227H83.6702V33.3273Z" fill="white" stroke="white" stroke-width="0.3" stroke-miterlimit="10"/>
<path d="M0.7 90.5V83.3H3.35C3.42 83.3 3.49167 83.3033 3.565 83.31C3.63833 83.3133 3.72 83.3233 3.81 83.34C4.15667 83.3933 4.45667 83.52 4.71 83.72C4.96667 83.9167 5.16333 84.1667 5.3 84.47C5.44 84.77 5.51 85.1 5.51 85.46C5.51 85.82 5.44 86.1517 5.3 86.455C5.16333 86.755 4.96667 87.005 4.71 87.205C4.45667 87.4017 4.15667 87.5267 3.81 87.58C3.72 87.5933 3.63833 87.6033 3.565 87.61C3.49167 87.6167 3.42 87.62 3.35 87.62H1.12V90.5H0.7ZM1.12 87.2H3.35C3.40667 87.2 3.47333 87.1967 3.55 87.19C3.63 87.1833 3.71 87.1733 3.79 87.16C4.06667 87.1067 4.29833 86.9967 4.485 86.83C4.675 86.6633 4.81833 86.4617 4.915 86.225C5.01167 85.985 5.06 85.73 5.06 85.46C5.06 85.19 5.01167 84.9367 4.915 84.7C4.81833 84.46 4.675 84.2567 4.485 84.09C4.29833 83.9233 4.06667 83.8133 3.79 83.76C3.71 83.7433 3.63 83.7333 3.55 83.73C3.47333 83.7233 3.40667 83.72 3.35 83.72H1.12V87.2ZM8.08055 90.65C7.66055 90.65 7.31221 90.5767 7.03555 90.43C6.75888 90.2833 6.55221 90.09 6.41555 89.85C6.27888 89.61 6.21055 89.35 6.21055 89.07C6.21055 88.7533 6.27888 88.4917 6.41555 88.285C6.55555 88.075 6.73721 87.91 6.96055 87.79C7.18388 87.67 7.42388 87.5833 7.68055 87.53C7.99388 87.4667 8.32888 87.4117 8.68555 87.365C9.04555 87.315 9.37721 87.2733 9.68055 87.24C9.98388 87.2067 10.2105 87.18 10.3605 87.16L10.2105 87.26C10.2272 86.6233 10.1105 86.15 9.86055 85.84C9.61388 85.5267 9.17721 85.37 8.55055 85.37C8.09721 85.37 7.73221 85.4717 7.45555 85.675C7.18221 85.875 6.99055 86.1833 6.88055 86.6L6.42055 86.48C6.54055 85.98 6.78555 85.6 7.15555 85.34C7.52888 85.08 8.00055 84.95 8.57055 84.95C9.07055 84.95 9.48721 85.0517 9.82055 85.255C10.1539 85.4583 10.3805 85.7333 10.5005 86.08C10.5472 86.2133 10.5805 86.375 10.6005 86.565C10.6205 86.755 10.6305 86.94 10.6305 87.12V90.5H10.2405V89.02L10.4405 89.03C10.2972 89.5433 10.0122 89.9417 9.58555 90.225C9.15888 90.5083 8.65721 90.65 8.08055 90.65ZM8.06055 90.23C8.45055 90.23 8.79388 90.16 9.09055 90.02C9.39055 89.88 9.63221 89.6783 9.81555 89.415C10.0022 89.1483 10.1205 88.83 10.1705 88.46C10.1972 88.2733 10.2105 88.0733 10.2105 87.86C10.2105 87.6467 10.2105 87.4933 10.2105 87.4L10.4305 87.57C10.2539 87.5867 10.0089 87.61 9.69555 87.64C9.38555 87.6667 9.05721 87.7033 8.71055 87.75C8.36388 87.7933 8.05055 87.85 7.77055 87.92C7.60721 87.96 7.43888 88.0233 7.26555 88.11C7.09221 88.1967 6.94555 88.3183 6.82555 88.475C6.70888 88.6317 6.65055 88.8333 6.65055 89.08C6.65055 89.2533 6.69388 89.4283 6.78055 89.605C6.86721 89.7817 7.01221 89.93 7.21555 90.05C7.42221 90.17 7.70388 90.23 8.06055 90.23ZM13.8905 90.65C13.3271 90.65 12.8488 90.5233 12.4555 90.27C12.0655 90.0167 11.7571 89.6633 11.5305 89.21L11.8805 89.01C12.0805 89.41 12.3455 89.7133 12.6755 89.92C13.0055 90.1267 13.3905 90.23 13.8305 90.23C14.2905 90.23 14.6621 90.1217 14.9455 89.905C15.2288 89.685 15.3705 89.3833 15.3705 89C15.3705 88.7633 15.3238 88.565 15.2305 88.405C15.1405 88.2417 14.9871 88.1183 14.7705 88.035C14.5571 87.9517 14.2671 87.91 13.9005 87.91H13.1005V87.5H13.8905C14.3105 87.5 14.6421 87.4117 14.8855 87.235C15.1288 87.055 15.2505 86.8033 15.2505 86.48C15.2505 86.11 15.1138 85.8333 14.8405 85.65C14.5671 85.4633 14.2371 85.37 13.8505 85.37C13.4905 85.37 13.1571 85.4433 12.8505 85.59C12.5471 85.7367 12.3005 85.93 12.1105 86.17L11.7805 85.89C12.0305 85.5733 12.3321 85.3383 12.6855 85.185C13.0421 85.0283 13.4471 84.95 13.9005 84.95C14.2471 84.95 14.5538 85.0117 14.8205 85.135C15.0905 85.2583 15.3005 85.435 15.4505 85.665C15.6038 85.8917 15.6805 86.16 15.6805 86.47C15.6805 86.8133 15.5921 87.0967 15.4155 87.32C15.2421 87.5433 15.0105 87.71 14.7205 87.82L14.6605 87.62C14.9305 87.64 15.1488 87.725 15.3155 87.875C15.4855 88.0217 15.6088 88.2017 15.6855 88.415C15.7621 88.625 15.8005 88.8333 15.8005 89.04C15.8005 89.36 15.7188 89.6417 15.5555 89.885C15.3921 90.125 15.1655 90.3133 14.8755 90.45C14.5888 90.5833 14.2605 90.65 13.8905 90.65ZM19.2112 90.65C18.7345 90.65 18.3295 90.5233 17.9962 90.27C17.6628 90.0167 17.4078 89.675 17.2312 89.245C17.0578 88.8117 16.9712 88.3267 16.9712 87.79C16.9712 87.2433 17.0595 86.7567 17.2362 86.33C17.4128 85.9 17.6728 85.5633 18.0162 85.32C18.3628 85.0733 18.7878 84.95 19.2912 84.95C19.7745 84.95 20.1845 85.0767 20.5212 85.33C20.8612 85.58 21.1195 85.92 21.2962 86.35C21.4728 86.78 21.5612 87.26 21.5612 87.79C21.5612 88.33 21.4712 88.8167 21.2912 89.25C21.1112 89.68 20.8462 90.0217 20.4962 90.275C20.1495 90.525 19.7212 90.65 19.2112 90.65ZM16.9012 92.9V85.1H17.2912V89.35H17.3212V92.9H16.9012ZM19.2112 90.23C19.6278 90.23 19.9762 90.1233 20.2562 89.91C20.5395 89.6967 20.7528 89.4067 20.8962 89.04C21.0395 88.67 21.1112 88.2533 21.1112 87.79C21.1112 87.33 21.0412 86.9183 20.9012 86.555C20.7645 86.1883 20.5562 85.9 20.2762 85.69C19.9962 85.4767 19.6412 85.37 19.2112 85.37C18.7912 85.37 18.4378 85.4733 18.1512 85.68C17.8678 85.8867 17.6528 86.1733 17.5062 86.54C17.3628 86.9033 17.2912 87.32 17.2912 87.79C17.2912 88.2533 17.3628 88.67 17.5062 89.04C17.6495 89.4067 17.8628 89.6967 18.1462 89.91C18.4328 90.1233 18.7878 90.23 19.2112 90.23ZM24.2329 90.65C23.8129 90.65 23.4646 90.5767 23.1879 90.43C22.9112 90.2833 22.7046 90.09 22.5679 89.85C22.4312 89.61 22.3629 89.35 22.3629 89.07C22.3629 88.7533 22.4312 88.4917 22.5679 88.285C22.7079 88.075 22.8896 87.91 23.1129 87.79C23.3362 87.67 23.5762 87.5833 23.8329 87.53C24.1462 87.4667 24.4812 87.4117 24.8379 87.365C25.1979 87.315 25.5296 87.2733 25.8329 87.24C26.1362 87.2067 26.3629 87.18 26.5129 87.16L26.3629 87.26C26.3796 86.6233 26.2629 86.15 26.0129 85.84C25.7662 85.5267 25.3296 85.37 24.7029 85.37C24.2496 85.37 23.8846 85.4717 23.6079 85.675C23.3346 85.875 23.1429 86.1833 23.0329 86.6L22.5729 86.48C22.6929 85.98 22.9379 85.6 23.3079 85.34C23.6812 85.08 24.1529 84.95 24.7229 84.95C25.2229 84.95 25.6396 85.0517 25.9729 85.255C26.3062 85.4583 26.5329 85.7333 26.6529 86.08C26.6996 86.2133 26.7329 86.375 26.7529 86.565C26.7729 86.755 26.7829 86.94 26.7829 87.12V90.5H26.3929V89.02L26.5929 89.03C26.4496 89.5433 26.1646 89.9417 25.7379 90.225C25.3112 90.5083 24.8096 90.65 24.2329 90.65ZM24.2129 90.23C24.6029 90.23 24.9462 90.16 25.2429 90.02C25.5429 89.88 25.7846 89.6783 25.9679 89.415C26.1546 89.1483 26.2729 88.83 26.3229 88.46C26.3496 88.2733 26.3629 88.0733 26.3629 87.86C26.3629 87.6467 26.3629 87.4933 26.3629 87.4L26.5829 87.57C26.4062 87.5867 26.1612 87.61 25.8479 87.64C25.5379 87.6667 25.2096 87.7033 24.8629 87.75C24.5162 87.7933 24.2029 87.85 23.9229 87.92C23.7596 87.96 23.5912 88.0233 23.4179 88.11C23.2446 88.1967 23.0979 88.3183 22.9779 88.475C22.8612 88.6317 22.8029 88.8333 22.8029 89.08C22.8029 89.2533 22.8462 89.4283 22.9329 89.605C23.0196 89.7817 23.1646 89.93 23.3679 90.05C23.5746 90.17 23.8562 90.23 24.2129 90.23ZM30.1928 90.65C29.6961 90.65 29.2678 90.545 28.9078 90.335C28.5478 90.1217 28.2695 89.7917 28.0728 89.345C27.8795 88.8983 27.7828 88.3233 27.7828 87.62C27.7828 87.3367 27.7961 87.0333 27.8228 86.71C27.8528 86.3833 27.8895 86.0783 27.9328 85.795C27.9795 85.5117 28.0261 85.29 28.0728 85.13C28.1495 84.8733 28.2678 84.6333 28.4278 84.41C28.5878 84.1833 28.7795 84 29.0028 83.86C29.1995 83.73 29.4295 83.6283 29.6928 83.555C29.9595 83.4783 30.2361 83.4183 30.5228 83.375C30.8095 83.3317 31.0861 83.295 31.3528 83.265C31.6228 83.2317 31.8595 83.1933 32.0628 83.15L32.1228 83.55C31.9461 83.58 31.7295 83.6117 31.4728 83.645C31.2195 83.6783 30.9511 83.72 30.6678 83.77C30.3878 83.82 30.1195 83.8833 29.8628 83.96C29.6061 84.0367 29.3861 84.1333 29.2028 84.25C28.9128 84.4233 28.6895 84.695 28.5328 85.065C28.3795 85.4317 28.2828 85.87 28.2428 86.38C28.4495 86.0433 28.7345 85.7817 29.0978 85.595C29.4611 85.405 29.8695 85.31 30.3228 85.31C30.8128 85.31 31.2361 85.4217 31.5928 85.645C31.9528 85.865 32.2295 86.1767 32.4228 86.58C32.6161 86.98 32.7128 87.45 32.7128 87.99C32.7128 88.53 32.6128 89 32.4128 89.4C32.2161 89.7967 31.9295 90.105 31.5528 90.325C31.1761 90.5417 30.7228 90.65 30.1928 90.65ZM30.2428 90.23C30.9028 90.23 31.4045 90.025 31.7478 89.615C32.0911 89.205 32.2628 88.66 32.2628 87.98C32.2628 87.2833 32.0845 86.735 31.7278 86.335C31.3711 85.9317 30.8728 85.73 30.2328 85.73C29.5928 85.73 29.0995 85.9317 28.7528 86.335C28.4061 86.735 28.2328 87.2833 28.2328 87.98C28.2328 88.67 28.4045 89.2183 28.7478 89.625C29.0911 90.0283 29.5895 90.23 30.2428 90.23ZM35.9852 90.65C35.4519 90.65 35.0019 90.5283 34.6352 90.285C34.2686 90.0417 33.9902 89.705 33.8002 89.275C33.6102 88.845 33.5152 88.35 33.5152 87.79C33.5152 87.2233 33.6119 86.7267 33.8052 86.3C33.9986 85.8733 34.2786 85.5417 34.6452 85.305C35.0152 85.0683 35.4619 84.95 35.9852 84.95C36.5219 84.95 36.9736 85.0717 37.3402 85.315C37.7069 85.555 37.9836 85.8883 38.1702 86.315C38.3602 86.7417 38.4552 87.2333 38.4552 87.79C38.4552 88.36 38.3602 88.86 38.1702 89.29C37.9802 89.7167 37.7002 90.05 37.3302 90.29C36.9636 90.53 36.5152 90.65 35.9852 90.65ZM35.9852 90.23C36.6652 90.23 37.1719 90.005 37.5052 89.555C37.8386 89.1017 38.0052 88.5133 38.0052 87.79C38.0052 87.0533 37.8369 86.4667 37.5002 86.03C37.1669 85.59 36.6619 85.37 35.9852 85.37C35.5286 85.37 35.1502 85.4733 34.8502 85.68C34.5536 85.8867 34.3319 86.1717 34.1852 86.535C34.0386 86.8983 33.9652 87.3167 33.9652 87.79C33.9652 88.5233 34.1352 89.1133 34.4752 89.56C34.8186 90.0067 35.3219 90.23 35.9852 90.23ZM40.9509 90.5V85.52H38.9609V85.1H43.3609V85.52H41.3709V90.5H40.9509ZM44.3133 90.5V85.1H44.7333V87.7L47.4333 85.1H48.0633L45.2433 87.8L48.4933 90.5H47.7733L44.7333 87.9V90.5H44.3133ZM50.561 90.65C50.141 90.65 49.7927 90.5767 49.516 90.43C49.2393 90.2833 49.0327 90.09 48.896 89.85C48.7593 89.61 48.691 89.35 48.691 89.07C48.691 88.7533 48.7593 88.4917 48.896 88.285C49.036 88.075 49.2177 87.91 49.441 87.79C49.6643 87.67 49.9043 87.5833 50.161 87.53C50.4743 87.4667 50.8093 87.4117 51.166 87.365C51.526 87.315 51.8577 87.2733 52.161 87.24C52.4643 87.2067 52.691 87.18 52.841 87.16L52.691 87.26C52.7077 86.6233 52.591 86.15 52.341 85.84C52.0943 85.5267 51.6577 85.37 51.031 85.37C50.5777 85.37 50.2127 85.4717 49.936 85.675C49.6627 85.875 49.471 86.1833 49.361 86.6L48.901 86.48C49.021 85.98 49.266 85.6 49.636 85.34C50.0093 85.08 50.481 84.95 51.051 84.95C51.551 84.95 51.9677 85.0517 52.301 85.255C52.6343 85.4583 52.861 85.7333 52.981 86.08C53.0277 86.2133 53.061 86.375 53.081 86.565C53.101 86.755 53.111 86.94 53.111 87.12V90.5H52.721V89.02L52.921 89.03C52.7777 89.5433 52.4927 89.9417 52.066 90.225C51.6393 90.5083 51.1377 90.65 50.561 90.65ZM50.541 90.23C50.931 90.23 51.2743 90.16 51.571 90.02C51.871 89.88 52.1127 89.6783 52.296 89.415C52.4827 89.1483 52.601 88.83 52.651 88.46C52.6777 88.2733 52.691 88.0733 52.691 87.86C52.691 87.6467 52.691 87.4933 52.691 87.4L52.911 87.57C52.7343 87.5867 52.4893 87.61 52.176 87.64C51.866 87.6667 51.5377 87.7033 51.191 87.75C50.8443 87.7933 50.531 87.85 50.251 87.92C50.0877 87.96 49.9193 88.0233 49.746 88.11C49.5727 88.1967 49.426 88.3183 49.306 88.475C49.1893 88.6317 49.131 88.8333 49.131 89.08C49.131 89.2533 49.1743 89.4283 49.261 89.605C49.3477 89.7817 49.4927 89.93 49.696 90.05C49.9027 90.17 50.1843 90.23 50.541 90.23ZM60.4429 85.1V90.5H60.0229V85.84L56.8029 90.5H56.4129V85.1H56.8329V89.76L60.0529 85.1H60.4429ZM63.8445 90.5V85.1H67.8745V90.5H67.4545V85.52H64.2645V90.5H63.8445ZM71.4442 90.65C70.9109 90.65 70.4609 90.5283 70.0942 90.285C69.7276 90.0417 69.4492 89.705 69.2592 89.275C69.0692 88.845 68.9742 88.35 68.9742 87.79C68.9742 87.2233 69.0709 86.7267 69.2642 86.3C69.4576 85.8733 69.7376 85.5417 70.1042 85.305C70.4742 85.0683 70.9209 84.95 71.4442 84.95C71.9809 84.95 72.4326 85.0717 72.7992 85.315C73.1659 85.555 73.4426 85.8883 73.6292 86.315C73.8192 86.7417 73.9142 87.2333 73.9142 87.79C73.9142 88.36 73.8192 88.86 73.6292 89.29C73.4392 89.7167 73.1592 90.05 72.7892 90.29C72.4226 90.53 71.9742 90.65 71.4442 90.65ZM71.4442 90.23C72.1242 90.23 72.6309 90.005 72.9642 89.555C73.2976 89.1017 73.4642 88.5133 73.4642 87.79C73.4642 87.0533 73.2959 86.4667 72.9592 86.03C72.6259 85.59 72.1209 85.37 71.4442 85.37C70.9876 85.37 70.6092 85.4733 70.3092 85.68C70.0126 85.8867 69.7909 86.1717 69.6442 86.535C69.4976 86.8983 69.4242 87.3167 69.4242 87.79C69.4242 88.5233 69.5942 89.1133 69.9342 89.56C70.2776 90.0067 70.7809 90.23 71.4442 90.23ZM74.6164 91.7V90.08C74.9331 90.08 75.1614 89.9817 75.3014 89.785C75.4414 89.5883 75.5564 89.29 75.6464 88.89C75.7097 88.6133 75.7614 88.3117 75.8014 87.985C75.8414 87.6583 75.8764 87.265 75.9064 86.805C75.9364 86.345 75.9664 85.7767 75.9964 85.1H79.2664V90.08H79.7664V91.7H79.3464V90.5H75.0364V91.7H74.6164ZM75.6164 90.08H78.8464V85.52H76.4264C76.4131 85.81 76.3947 86.1217 76.3714 86.455C76.3514 86.7883 76.3264 87.1217 76.2964 87.455C76.2697 87.7883 76.2347 88.1 76.1914 88.39C76.1514 88.68 76.1031 88.9267 76.0464 89.13C75.9864 89.34 75.9264 89.5267 75.8664 89.69C75.8064 89.8533 75.7231 89.9833 75.6164 90.08ZM80.3684 91.7V90.08C80.685 90.08 80.9134 89.9817 81.0534 89.785C81.1934 89.5883 81.3084 89.29 81.3984 88.89C81.4617 88.6133 81.5134 88.3117 81.5534 87.985C81.5934 87.6583 81.6284 87.265 81.6584 86.805C81.6884 86.345 81.7184 85.7767 81.7484 85.1H85.0184V90.08H85.5184V91.7H85.0984V90.5H80.7884V91.7H80.3684ZM81.3684 90.08H84.5984V85.52H82.1784C82.165 85.81 82.1467 86.1217 82.1234 86.455C82.1034 86.7883 82.0784 87.1217 82.0484 87.455C82.0217 87.7883 81.9867 88.1 81.9434 88.39C81.9034 88.68 81.855 88.9267 81.7984 89.13C81.7384 89.34 81.6784 89.5267 81.6184 89.69C81.5584 89.8533 81.475 89.9833 81.3684 90.08ZM88.6903 90.65C88.1803 90.65 87.7403 90.535 87.3703 90.305C87.0036 90.075 86.7203 89.7467 86.5203 89.32C86.3203 88.8933 86.2203 88.3867 86.2203 87.8C86.2203 87.21 86.3186 86.7017 86.5153 86.275C86.7153 85.8483 86.9986 85.5217 87.3653 85.295C87.7353 85.065 88.177 84.95 88.6903 84.95C89.207 84.95 89.6486 85.0667 90.0153 85.3C90.382 85.5333 90.662 85.8717 90.8553 86.315C91.052 86.7583 91.1503 87.2933 91.1503 87.92H90.7003V87.78C90.6803 87.0033 90.497 86.4083 90.1503 85.995C89.807 85.5783 89.3203 85.37 88.6903 85.37C88.0503 85.37 87.5536 85.5833 87.2003 86.01C86.847 86.4333 86.6703 87.03 86.6703 87.8C86.6703 88.57 86.847 89.1683 87.2003 89.595C87.5536 90.0183 88.0503 90.23 88.6903 90.23C89.137 90.23 89.5286 90.125 89.8653 89.915C90.202 89.705 90.4703 89.4033 90.6703 89.01L91.0203 89.21C90.8003 89.67 90.4886 90.025 90.0853 90.275C89.682 90.525 89.217 90.65 88.6903 90.65ZM86.4903 87.92V87.5H90.8903V87.92H86.4903ZM94.5627 90.65C94.0861 90.65 93.6811 90.5233 93.3477 90.27C93.0144 90.0167 92.7594 89.675 92.5827 89.245C92.4094 88.8117 92.3227 88.3267 92.3227 87.79C92.3227 87.2433 92.4111 86.7567 92.5877 86.33C92.7644 85.9 93.0244 85.5633 93.3677 85.32C93.7144 85.0733 94.1394 84.95 94.6427 84.95C95.1261 84.95 95.5361 85.0767 95.8727 85.33C96.2127 85.58 96.4711 85.92 96.6477 86.35C96.8244 86.78 96.9127 87.26 96.9127 87.79C96.9127 88.33 96.8227 88.8167 96.6427 89.25C96.4627 89.68 96.1977 90.0217 95.8477 90.275C95.5011 90.525 95.0727 90.65 94.5627 90.65ZM92.2527 92.9V85.1H92.6427V89.35H92.6727V92.9H92.2527ZM94.5627 90.23C94.9794 90.23 95.3277 90.1233 95.6077 89.91C95.8911 89.6967 96.1044 89.4067 96.2477 89.04C96.3911 88.67 96.4627 88.2533 96.4627 87.79C96.4627 87.33 96.3927 86.9183 96.2527 86.555C96.1161 86.1883 95.9077 85.9 95.6277 85.69C95.3477 85.4767 94.9927 85.37 94.5627 85.37C94.1427 85.37 93.7894 85.4733 93.5027 85.68C93.2194 85.8867 93.0044 86.1733 92.8577 86.54C92.7144 86.9033 92.6427 87.32 92.6427 87.79C92.6427 88.2533 92.7144 88.67 92.8577 89.04C93.0011 89.4067 93.2144 89.6967 93.4977 89.91C93.7844 90.1233 94.1394 90.23 94.5627 90.23ZM97.2191 90.5L99.6991 87.8L97.2991 85.1H97.7991L100.179 87.8V85.1H100.599V87.8L102.979 85.1H103.479L101.079 87.8L103.559 90.5H103.059L100.599 87.8V90.5H100.179V87.8L97.7191 90.5H97.2191ZM104.362 90.5V85.1H104.782V87.7L107.482 85.1H108.112L105.292 87.8L108.542 90.5H107.822L104.782 87.9V90.5H104.362ZM110.61 90.65C110.19 90.65 109.842 90.5767 109.565 90.43C109.288 90.2833 109.082 90.09 108.945 89.85C108.808 89.61 108.74 89.35 108.74 89.07C108.74 88.7533 108.808 88.4917 108.945 88.285C109.085 88.075 109.267 87.91 109.49 87.79C109.713 87.67 109.953 87.5833 110.21 87.53C110.523 87.4667 110.858 87.4117 111.215 87.365C111.575 87.315 111.907 87.2733 112.21 87.24C112.513 87.2067 112.74 87.18 112.89 87.16L112.74 87.26C112.757 86.6233 112.64 86.15 112.39 85.84C112.143 85.5267 111.707 85.37 111.08 85.37C110.627 85.37 110.262 85.4717 109.985 85.675C109.712 85.875 109.52 86.1833 109.41 86.6L108.95 86.48C109.07 85.98 109.315 85.6 109.685 85.34C110.058 85.08 110.53 84.95 111.1 84.95C111.6 84.95 112.017 85.0517 112.35 85.255C112.683 85.4583 112.91 85.7333 113.03 86.08C113.077 86.2133 113.11 86.375 113.13 86.565C113.15 86.755 113.16 86.94 113.16 87.12V90.5H112.77V89.02L112.97 89.03C112.827 89.5433 112.542 89.9417 112.115 90.225C111.688 90.5083 111.187 90.65 110.61 90.65ZM110.59 90.23C110.98 90.23 111.323 90.16 111.62 90.02C111.92 89.88 112.162 89.6783 112.345 89.415C112.532 89.1483 112.65 88.83 112.7 88.46C112.727 88.2733 112.74 88.0733 112.74 87.86C112.74 87.6467 112.74 87.4933 112.74 87.4L112.96 87.57C112.783 87.5867 112.538 87.61 112.225 87.64C111.915 87.6667 111.587 87.7033 111.24 87.75C110.893 87.7933 110.58 87.85 110.3 87.92C110.137 87.96 109.968 88.0233 109.795 88.11C109.622 88.1967 109.475 88.3183 109.355 88.475C109.238 88.6317 109.18 88.8333 109.18 89.08C109.18 89.2533 109.223 89.4283 109.31 89.605C109.397 89.7817 109.542 89.93 109.745 90.05C109.952 90.17 110.233 90.23 110.59 90.23Z" fill="white"/>
</svg>
