<svg width="238" height="56" viewBox="0 0 238 56" fill="none" xmlns="http://www.w3.org/2000/svg">
<g clip-path="url(#clip0_947_2524)">
<path fill-rule="evenodd" clip-rule="evenodd" d="M30.1505 55.7577C28.8184 56.1241 27.7397 56.0849 27.5513 55.6007C27.5476 55.5594 27.5476 55.5178 27.5513 55.4764L26.6416 48.2802C26.5246 47.9923 27.1224 47.4755 27.9802 47.1353C28.8379 46.7951 29.6177 46.7493 29.7346 47.0372L34.0103 52.925C34.0293 52.9535 34.0446 52.9843 34.0558 53.0166C34.2507 53.4942 33.4905 54.2727 32.2753 54.9335C31.9452 55.1133 31.6045 55.2727 31.2551 55.411C30.8936 55.547 30.5248 55.6628 30.1505 55.7577Z" fill="#EFAB00"/>
<path fill-rule="evenodd" clip-rule="evenodd" d="M67.6576 21.713C69.1067 25.37 60.5683 32.2392 48.586 37.0607C36.6037 41.8822 25.7131 42.8242 24.2641 39.1672L24.1081 38.428L21.3984 25.7102C22.5551 28.6149 29.0726 28.8569 37.1366 26.6457C41.5173 25.4311 45.7498 23.7283 49.7557 21.5691C57.1114 17.5784 61.673 12.8812 60.5228 9.97656L67.2612 21.0981L67.6576 21.713Z" fill="#676767"/>
<path fill-rule="evenodd" clip-rule="evenodd" d="M37.1363 26.6456C29.0723 28.8568 22.5548 28.6082 21.3982 25.7101C19.9491 22.0531 27.5323 15.5699 38.3319 11.2195C49.1316 6.869 59.0735 6.31946 60.5226 9.97647C61.6727 12.8811 57.1111 17.5783 49.7554 21.569C45.7496 23.7282 41.517 25.431 37.1363 26.6456Z" fill="#7385A1"/>
<path fill-rule="evenodd" clip-rule="evenodd" d="M36.9411 8.17103L18.7727 21.1178L0 32.5467L0.604313 34.071L22.639 30.8589L44.6737 27.6402L62.8421 14.6869L81.3353 1.50467L80.6725 0L58.9758 4.95234L36.9411 8.17103Z" fill="#E2E2E2"/>
<path fill-rule="evenodd" clip-rule="evenodd" d="M52.4584 22.0925L62.8422 14.6869L81.3355 1.50467L80.6727 0L64.5641 3.67664L51.8086 20.5944L52.4584 22.0925Z" fill="#E2E2E2"/>
<path fill-rule="evenodd" clip-rule="evenodd" d="M36.3368 6.64031L18.1684 19.5936L0 32.5469L22.0347 29.3282L44.0629 26.116L62.2312 13.1627L80.3996 0.209473L58.3714 3.42816L36.3368 6.64031Z" fill="#676767"/>
<path fill-rule="evenodd" clip-rule="evenodd" d="M51.8088 20.5878L62.2056 13.1626L80.6469 0L58.3458 3.42149L36.623 6.59439C35.0895 9.4271 34.6736 12.1944 35.6093 14.5888C37.4417 19.129 43.7708 21.2093 51.8088 20.5878Z" fill="#676767"/>
<path fill-rule="evenodd" clip-rule="evenodd" d="M22.0347 29.3279L44.0629 26.1157L44.6737 27.64L22.639 30.8587L0.604313 34.0709L0 32.5466L22.0347 29.3279Z" fill="#E2E2E2"/>
<path fill-rule="evenodd" clip-rule="evenodd" d="M55.0515 20.2409L62.8491 14.6867L63.2325 14.4185L67.2742 21.0717L67.6706 21.7259C68.7948 24.5586 63.9213 29.3213 56.1042 33.5605C51.7883 33.7295 47.483 33.0197 43.4461 31.4736C41.5505 30.7342 39.7471 29.7747 38.0723 28.6147L44.6807 27.653L55.0515 20.2409Z" fill="#676767"/>
<path d="M28.8398 47.5853C29.5168 46.9232 29.5325 45.8339 28.8748 45.1523C28.2172 44.4707 27.1352 44.4549 26.4582 45.117C25.7812 45.7792 25.7656 46.8685 26.4232 47.55C27.0809 48.2316 28.1628 48.2474 28.8398 47.5853Z" fill="#EFAB00"/>
<path fill-rule="evenodd" clip-rule="evenodd" d="M39.683 16.4337C38.7538 16.8131 37.8311 16.715 37.6362 16.2243C37.4412 15.7337 38.0456 15.0271 38.9748 14.6542C39.904 14.2813 40.8267 14.3729 41.0216 14.8636C41.2166 15.3542 40.6317 16.0608 39.683 16.4337Z" fill="#686969"/>
<path fill-rule="evenodd" clip-rule="evenodd" d="M39.5854 16.1588C38.6562 16.5317 37.7335 16.4401 37.5385 15.9495C37.3436 15.4588 37.9479 14.7523 38.8771 14.3729C39.8063 13.9934 40.729 14.0915 40.924 14.5822C41.1189 15.0729 40.5211 15.7859 39.5854 16.1588Z" fill="#666666"/>
<path fill-rule="evenodd" clip-rule="evenodd" d="M39.4048 15.6094C39.4968 15.5368 39.5575 15.4313 39.5743 15.3148C39.5912 15.1983 39.5627 15.0797 39.495 14.9837C39.4273 14.8877 39.3254 14.8217 39.2106 14.7994C39.0958 14.777 38.9768 14.8 38.8784 14.8636L20.1187 28.4253C20.0319 28.4863 19.9697 28.5767 19.9435 28.6799C19.9172 28.7832 19.9287 28.8925 19.9758 28.9879L26.7792 45.5001C26.7979 45.5607 26.829 45.6168 26.8705 45.6647C26.9119 45.7125 26.9628 45.7512 27.0199 45.7782C27.077 45.8053 27.1391 45.82 27.2021 45.8216C27.2652 45.8232 27.3279 45.8115 27.3863 45.7874C27.4446 45.7632 27.4973 45.7271 27.5411 45.6814C27.5848 45.6356 27.6187 45.5812 27.6404 45.5216C27.6621 45.4619 27.6713 45.3984 27.6674 45.335C27.6634 45.2716 27.6464 45.2098 27.6174 45.1534L20.9375 28.9291L39.4048 15.6094Z" fill="#EF8200"/>
<path d="M91.6675 17.2775C91.5898 17.1674 91.5551 17.0323 91.57 16.8981C91.57 16.6626 91.6025 16.5514 91.6675 16.5514C91.868 16.5439 92.0678 16.5221 92.2653 16.4859C92.5055 16.4493 92.7409 16.3857 92.9671 16.2962C93.1815 16.2112 93.305 16.1327 93.3375 16.0476C93.4182 15.7532 93.464 15.4501 93.4739 15.1448C93.4739 14.7719 93.5129 14.3336 93.5129 13.8364V4.72986C93.5832 3.85128 93.5085 2.96706 93.292 2.11303C93.175 1.86444 92.2783 1.74014 90.5953 1.74014C90.1005 1.7228 89.6058 1.77789 89.1268 1.90369C88.9563 1.95214 88.7975 2.03517 88.66 2.14767C88.5226 2.26017 88.4094 2.39977 88.3275 2.5579C88.0938 3.00869 87.9191 3.48807 87.8077 3.98406C87.7687 4.06911 87.6907 4.10836 87.5543 4.10836C87.1319 4.12127 86.7104 4.0638 86.3066 3.93827L87.4308 0.34668C87.7947 0.431726 88.1196 0.497145 88.4055 0.549482C88.6523 0.593118 88.9022 0.617179 89.1528 0.621445C90.3484 0.621445 91.4011 0.621446 92.3173 0.673783C93.2335 0.726119 93.9938 0.72612 94.6111 0.72612C95.9107 0.72612 96.9893 0.726119 97.9121 0.673783C98.8348 0.621446 99.5625 0.621445 100.095 0.621445C100.346 0.617179 100.596 0.593118 100.843 0.549482C101.129 0.497145 101.447 0.431726 101.817 0.34668L102.292 3.93827C102.122 4.07058 101.907 4.13153 101.694 4.10836C101.557 4.10836 101.473 4.06911 101.44 3.98406C101.342 3.48629 101.171 3.0058 100.934 2.5579C100.757 2.24225 100.466 2.00776 100.121 1.90369C99.6423 1.77789 99.1476 1.7228 98.6528 1.74014C96.92 1.74014 96.0038 1.86444 95.9042 2.11303C95.7258 2.93772 95.6516 3.78178 95.6832 4.62519V13.6859C95.6638 14.4705 95.738 15.2546 95.9042 16.0215C96.0062 16.1302 96.1369 16.2074 96.2811 16.2439C96.5068 16.3308 96.7394 16.3987 96.9763 16.4467C97.1493 16.4878 97.3253 16.5141 97.5027 16.5252C97.5677 16.5252 97.6001 16.6495 97.6001 16.8981C97.5986 17.0172 97.5834 17.1358 97.5547 17.2514L95.6053 17.1598L94.6825 17.1271L91.6675 17.2775Z" fill="white"/>
<path d="M115.294 17.3037H113.663L111.285 17.2644L108.789 17.2252H106.794L103.779 17.3037C103.711 17.1805 103.683 17.0382 103.701 16.8981C103.701 16.6822 103.701 16.5775 103.779 16.5775C103.981 16.5689 104.182 16.5382 104.377 16.4859C104.617 16.4288 104.853 16.3589 105.085 16.2766C105.253 16.2353 105.4 16.1356 105.501 15.9953C105.679 15.2239 105.738 14.4296 105.677 13.6401V4.12143C105.677 3.63732 105.664 3.21209 105.638 2.84573C105.623 2.54948 105.578 2.25561 105.501 1.9691C105.469 1.86443 105.339 1.77283 105.111 1.68779C104.877 1.60228 104.636 1.53663 104.39 1.49152C104.189 1.44625 103.985 1.41997 103.779 1.41302C103.714 1.41302 103.682 1.31489 103.682 1.11208C103.665 0.963285 103.7 0.813188 103.779 0.686853L105.163 0.726104H106.749H108.289L110.635 0.647602C111.564 0.647602 112.376 0.588723 113.065 0.575639C113.754 0.562555 114.332 0.575639 114.8 0.575639C114.8 0.811153 114.884 1.09246 114.949 1.41302C115.014 1.73358 115.099 2.06723 115.196 2.47938C115.294 2.89153 115.352 3.21209 115.411 3.46069C115.469 3.70929 115.502 3.88592 115.521 3.99059C115.392 4.08629 115.232 4.13057 115.073 4.11489C114.856 4.11489 114.739 4.05601 114.722 3.93826C114.611 3.23459 114.236 2.60036 113.676 2.16535C113.103 1.88141 112.468 1.7486 111.83 1.77938H110.16C108.718 1.77938 107.984 1.89059 107.971 2.10648C107.926 2.37943 107.895 2.65458 107.88 2.93077C107.88 3.28404 107.841 3.70928 107.841 4.23918V8.21022C107.841 8.30835 108.198 8.36068 108.913 8.36068H110.212H111.356C111.503 8.36201 111.65 8.34219 111.791 8.30181C111.882 8.26255 112.064 8.21676 112.331 8.14479C112.493 8.14479 112.623 7.91583 112.714 7.55601C112.805 7.1962 112.883 6.90181 112.955 6.66629C112.955 6.54854 113.078 6.48965 113.325 6.48965C113.476 6.47551 113.627 6.51996 113.747 6.61395V11.3635C113.632 11.4442 113.491 11.4791 113.351 11.4616C113.136 11.4616 113 11.3962 112.955 11.2588C112.883 11.0233 112.825 10.827 112.779 10.657C112.734 10.4869 112.688 10.3495 112.656 10.2317C112.617 10.0886 112.553 9.95348 112.467 9.83265C112.399 9.77738 112.328 9.7271 112.253 9.68218C111.389 9.47957 110.499 9.41118 109.615 9.47938C108.412 9.47938 107.815 9.55134 107.815 9.70181V13.627C107.779 14.3952 107.856 15.1645 108.042 15.9102C108.094 16.0803 108.659 16.1654 109.738 16.1654H110.934C111.998 16.2391 113.066 16.0922 114.072 15.7336C114.418 15.508 114.705 15.2031 114.91 14.8439C115.238 14.338 115.486 13.7841 115.645 13.2018C115.677 13.0971 115.794 13.0513 115.996 13.0513C116.223 13.0169 116.456 13.0707 116.645 13.2018C116.593 13.3327 116.515 13.542 116.405 13.8168L116.093 14.6541C115.996 14.942 115.911 15.184 115.846 15.3869C115.749 15.6878 115.638 16.0411 115.521 16.414C115.426 16.7051 115.35 17.0024 115.294 17.3037Z" fill="white"/>
<path d="M117.788 17.2774C117.711 17.1673 117.676 17.0322 117.691 16.898C117.691 16.6624 117.723 16.5512 117.788 16.5512C118.051 16.54 118.31 16.496 118.562 16.4204C118.81 16.3795 119.038 16.2577 119.211 16.0737C119.428 15.7837 119.615 15.4725 119.77 15.1447C119.999 14.6782 120.203 14.2 120.381 13.712L124.722 2.49235C124.794 2.32235 124.855 2.14748 124.904 1.96899C124.904 1.86432 124.956 1.77927 124.982 1.70077C125.008 1.62226 125.06 1.49797 125.144 1.31479C125.238 1.11587 125.356 0.929153 125.495 0.758709C125.571 0.687034 125.661 0.63246 125.76 0.598622C125.859 0.564784 125.963 0.552454 126.067 0.562445L126.288 0.634408L131.304 13.8886C131.454 14.2746 131.59 14.6148 131.714 14.9157C131.837 15.2167 131.941 15.4783 132.025 15.6942C132.115 15.8872 132.269 16.0423 132.461 16.1325C132.683 16.2582 132.919 16.3591 133.163 16.4335C133.342 16.5001 133.53 16.5398 133.721 16.5512C133.786 16.5512 133.819 16.7082 133.819 17.0223C133.825 17.0613 133.825 17.101 133.819 17.14C133.819 17.1793 133.819 17.2251 133.786 17.2774C132.955 17.2447 132.311 17.212 131.837 17.1858L131.025 17.1531L128.133 17.2774C128.056 17.1549 128.026 17.0084 128.049 16.8652C128.049 16.6559 128.094 16.5512 128.159 16.5512C128.413 16.5412 128.664 16.4972 128.906 16.4204C129.205 16.3419 129.381 16.2307 129.433 16.0998C129.485 15.969 129.433 15.9624 129.472 15.897C129.511 15.8316 129.472 15.7596 129.472 15.6942C129.468 15.4373 129.442 15.1812 129.394 14.9288C129.358 14.6946 129.299 14.4646 129.218 14.2419L128.101 11.1279C128.084 11.1017 128.062 11.0793 128.037 11.0624C128.011 11.0455 127.982 11.0343 127.951 11.0297C127.301 10.9774 126.652 10.9512 126.054 10.9512C125.625 10.9512 125.144 10.9512 124.618 10.9905L122.889 11.0755L122.766 11.154L121.694 13.9148C121.55 14.255 121.437 14.6075 121.356 14.9681C121.305 15.1828 121.275 15.4018 121.265 15.6223C121.256 15.7163 121.27 15.811 121.305 15.8986C121.34 15.9862 121.395 16.0641 121.466 16.126C121.683 16.273 121.929 16.3712 122.188 16.4138C122.426 16.4774 122.669 16.5169 122.915 16.5316C122.961 16.5316 122.993 16.6297 123 16.8325C123.012 16.9755 122.999 17.1195 122.961 17.2578L120.394 17.1335C119.942 17.0941 119.488 17.0941 119.036 17.1335L117.788 17.2774ZM125.17 9.7475C125.917 9.7475 126.671 9.74749 127.438 9.66898L127.509 9.54468L125.495 3.99702L123.351 9.59702C123.351 9.66244 123.351 9.69516 123.396 9.69516L124.481 9.73441L125.17 9.7475Z" fill="white"/>
<path d="M142.247 17.3689C141.186 17.3747 140.136 17.1517 139.167 16.7147C138.223 16.2836 137.368 15.6777 136.646 14.9287C135.163 13.3696 134.338 11.2916 134.346 9.13248C134.346 7.98426 134.567 6.84692 134.996 5.78294C135.393 4.75793 135.985 3.82036 136.737 3.0222C137.473 2.23311 138.356 1.59738 139.336 1.15117C140.345 0.703425 141.438 0.480269 142.54 0.496966C143.521 0.496966 144.489 0.5493 145.529 0.647431C146.559 0.753194 147.582 0.912595 148.596 1.125L148.55 4.74276C148.55 4.99135 148.375 5.11566 148.024 5.11566C147.855 5.11566 147.751 5.0764 147.699 4.99136C147.647 4.77547 147.589 4.55304 147.511 4.33715C147.393 4.02308 147.238 3.72437 147.049 3.44743C146.62 2.83743 146.03 2.35954 145.347 2.06706C144.48 1.70778 143.548 1.53614 142.611 1.56331C141.811 1.56266 141.024 1.76756 140.324 2.15864C139.598 2.55917 138.958 3.0993 138.44 3.74836C137.331 5.13513 136.728 6.86204 136.731 8.64183C136.711 9.92348 136.947 11.196 137.426 12.3839C137.886 13.5152 138.651 14.4943 139.635 15.21C140.677 15.9621 141.934 16.3525 143.216 16.3222C143.917 16.3654 144.62 16.2583 145.277 16.0079C145.935 15.7576 146.532 15.3697 147.03 14.8699C147.296 14.5753 147.505 14.2337 147.647 13.8624C147.797 13.4829 147.914 13.1428 147.998 12.8615C148.083 12.5801 148.167 12.4362 148.251 12.4362C148.371 12.4394 148.491 12.4503 148.609 12.4689C148.728 12.4869 148.842 12.5268 148.947 12.5867L149.07 12.6586C149.053 12.896 149.02 13.132 148.973 13.3652C148.908 13.7315 148.823 14.1372 148.719 14.582C148.622 15.0269 148.524 15.4129 148.433 15.7465C148.397 15.9428 148.327 16.1311 148.225 16.3026C146.971 16.9829 144.989 17.3689 142.247 17.3689Z" fill="white"/>
<path d="M150.65 17.2776C150.567 17.1699 150.529 17.0335 150.546 16.8982C150.546 16.6627 150.578 16.5515 150.65 16.5515C150.85 16.5437 151.05 16.5218 151.248 16.486C151.486 16.4485 151.719 16.3849 151.943 16.2963C152.157 16.2113 152.287 16.1328 152.32 16.0477C152.394 15.7519 152.44 15.4496 152.456 15.1449C152.456 14.772 152.495 14.3337 152.495 13.8365V4.07577C152.495 3.55895 152.495 3.10756 152.456 2.73466C152.442 2.43192 152.396 2.13151 152.32 1.83839C152.32 1.74026 152.157 1.65522 151.943 1.57671C151.715 1.50025 151.483 1.43691 151.248 1.387C151.051 1.34634 150.851 1.32227 150.65 1.31504C150.578 1.31504 150.546 1.20382 150.546 0.987933C150.527 0.84632 150.564 0.702937 150.65 0.588867C150.799 0.588867 151.053 0.588859 151.41 0.621569L152.567 0.700081C153 0.726249 153.357 0.739332 153.639 0.739332C154.172 0.739332 154.705 0.739328 155.237 0.673907C155.77 0.608487 156.199 0.601951 156.537 0.588867C156.578 0.722162 156.591 0.862386 156.576 1.00101C156.576 1.21036 156.537 1.31504 156.485 1.31504C156.309 1.32559 156.135 1.35408 155.965 1.40008C155.728 1.45509 155.494 1.52279 155.263 1.60288C155.049 1.67484 154.925 1.75989 154.893 1.83839C154.722 2.60446 154.645 3.38894 154.666 4.17391V7.91596L154.718 7.98793L156.888 8.02718H158.506H160.15L162.197 7.98793C162.211 7.97586 162.224 7.96096 162.232 7.94412C162.241 7.92727 162.247 7.9088 162.249 7.88979V4.07577C162.249 3.55895 162.249 3.10756 162.21 2.73466C162.196 2.43192 162.15 2.13151 162.073 1.83839C162.073 1.74026 161.917 1.65522 161.696 1.57671C161.468 1.50025 161.236 1.43691 161.001 1.387C160.804 1.34634 160.604 1.32227 160.403 1.31504C160.338 1.31504 160.299 1.20382 160.299 0.987933C160.283 0.846502 160.32 0.704117 160.403 0.588867C160.533 0.588867 160.787 0.588859 161.151 0.621569L162.333 0.700081C162.756 0.700081 163.119 0.739332 163.418 0.739332C163.951 0.739332 164.471 0.739328 164.991 0.673907C165.511 0.608487 165.927 0.601951 166.258 0.588867C166.29 0.710578 166.308 0.835795 166.31 0.961759C166.31 1.19727 166.277 1.31504 166.212 1.31504C166.035 1.32515 165.858 1.35364 165.686 1.40008C165.451 1.45418 165.219 1.52189 164.991 1.60288C164.77 1.67484 164.646 1.75989 164.614 1.83839C164.54 2.16121 164.49 2.48926 164.464 2.8197C164.464 3.20568 164.413 3.65709 164.413 4.17391V13.7122C164.413 14.229 164.413 14.6804 164.464 15.0664C164.49 15.3969 164.54 15.7249 164.614 16.0477C164.646 16.1132 164.77 16.1917 164.991 16.2702C165.217 16.3571 165.449 16.4249 165.686 16.473C165.859 16.5149 166.035 16.5412 166.212 16.5515C166.277 16.5515 166.31 16.6758 166.31 16.9244C166.306 17.0437 166.288 17.1622 166.258 17.2776L164.309 17.1861L163.425 17.1533L160.41 17.2776C160.328 17.1521 160.291 17.002 160.306 16.8524C160.306 16.6496 160.345 16.5515 160.41 16.5515C160.61 16.5437 160.81 16.5218 161.008 16.486C161.245 16.4485 161.479 16.3849 161.703 16.2963C161.924 16.2113 162.047 16.1328 162.08 16.0477C162.154 15.7519 162.2 15.4496 162.216 15.1449C162.216 14.772 162.255 14.3337 162.255 13.8365V9.42064L162.203 9.3225L160.111 9.28325H158.512C155.952 9.28325 154.672 9.32905 154.672 9.40755V13.7515C154.654 14.5364 154.73 15.3206 154.899 16.087C154.997 16.1978 155.127 16.2754 155.27 16.3094C155.498 16.3955 155.733 16.4633 155.972 16.5122C156.142 16.5536 156.316 16.5799 156.491 16.5907C156.543 16.5907 156.576 16.6889 156.582 16.8917C156.595 17.0346 156.582 17.1786 156.543 17.3169L154.594 17.2253L153.671 17.1926L150.65 17.2776Z" fill="white"/>
<path d="M173.705 17.2776C173.617 17.1719 173.572 17.036 173.581 16.8982C173.581 16.6627 173.627 16.5515 173.705 16.5515C173.923 16.5456 174.141 16.5194 174.354 16.473C174.617 16.4232 174.875 16.3554 175.128 16.2702C175.322 16.222 175.503 16.1278 175.654 15.9954C175.933 15.6945 176.083 14.9683 176.102 13.8104C176.133 11.8739 176.17 10.1294 176.213 8.57671C176.252 7.03279 176.291 5.75708 176.323 4.76269C176.356 3.7683 176.375 3.12718 176.375 2.84587C176.387 2.50718 176.355 2.16838 176.278 1.83839C176.278 1.74026 176.096 1.65522 175.843 1.57671C175.589 1.49821 175.303 1.43934 175.004 1.387C174.774 1.34701 174.542 1.32297 174.309 1.31504C174.237 1.31504 174.205 1.19727 174.205 0.961759C174.197 0.895762 174.202 0.82875 174.219 0.764697C174.237 0.700644 174.268 0.640859 174.309 0.588867C174.705 0.588867 175.147 0.62812 175.609 0.66083C176.07 0.69354 176.583 0.713158 177.077 0.713158C177.393 0.713158 177.738 0.700075 178.11 0.673907L179.371 0.588867C179.505 0.955222 181.151 5.1465 184.309 13.1627C184.322 13.1766 184.337 13.1878 184.353 13.1957C184.37 13.2035 184.388 13.2079 184.407 13.2085C184.436 13.2105 184.465 13.2016 184.487 13.1834C184.51 13.1653 184.526 13.1392 184.53 13.1104C185.349 11.187 186.077 9.42717 186.727 7.83746C187.376 6.24774 187.942 4.83465 188.423 3.59821L189.417 0.588867L190.716 0.66083C191.054 0.66083 191.308 0.66083 191.477 0.66083C191.99 0.66083 192.484 0.66083 192.945 0.66083C193.407 0.66083 193.855 0.621577 194.245 0.588867C194.291 0.708113 194.317 0.834037 194.323 0.961759C194.323 1.19727 194.284 1.31504 194.199 1.31504H194.147C193.899 1.328 193.656 1.38331 193.426 1.47859C193.193 1.55791 192.974 1.67263 192.776 1.81877C192.581 1.96923 192.477 2.52531 192.477 3.50008L192.705 13.6861C192.705 14.4708 192.83 15.2504 193.075 15.9954C193.169 16.1361 193.313 16.2346 193.478 16.2702C193.708 16.3588 193.945 16.4267 194.186 16.473C194.37 16.5154 194.557 16.5417 194.745 16.5515C194.817 16.5515 194.849 16.6627 194.849 16.8982C194.846 17.0263 194.829 17.1536 194.797 17.2776L192.815 17.1861L191.828 17.1533L188.838 17.2776C188.758 17.1587 188.724 17.0147 188.741 16.872C188.741 16.6562 188.773 16.5515 188.838 16.5515C189.096 16.5361 189.351 16.4922 189.599 16.4206C189.854 16.3718 190.101 16.2881 190.333 16.172C190.534 16.0412 190.632 15.6814 190.632 15.0926V13.7842L190.359 4.93933C190.357 4.73305 190.337 4.52733 190.301 4.32437C190.255 4.10195 190.21 3.89914 190.164 3.72251C190.119 3.54587 190.054 3.46083 189.989 3.46083C189.924 3.46083 189.911 3.5197 189.865 3.63746L184.667 16.1851C184.348 16.9048 184.017 17.2646 183.744 17.2646L183.517 17.2122L177.811 2.60381C177.759 4.96767 177.701 7.07204 177.636 8.9169C177.571 10.7683 177.512 12.2533 177.473 13.372C177.434 14.4907 177.409 15.1449 177.409 15.3347C177.389 15.5631 177.442 15.7918 177.558 15.9889C177.701 16.1174 177.873 16.2094 178.058 16.2571C178.333 16.3497 178.613 16.424 178.897 16.4795C179.089 16.5257 179.284 16.5564 179.481 16.5711C179.546 16.5711 179.579 16.6954 179.579 16.944C179.578 17.0636 179.56 17.1825 179.527 17.2973L177.577 17.2057L176.655 17.173L173.705 17.2776Z" fill="white"/>
<path d="M207.982 17.3037H206.351L203.966 17.2644L201.477 17.2252H199.483L196.461 17.3037C196.398 17.1786 196.373 17.0374 196.39 16.8981C196.39 16.6822 196.39 16.5775 196.461 16.5775C196.663 16.5689 196.863 16.5382 197.059 16.4859C197.301 16.4287 197.539 16.3588 197.774 16.2766C197.939 16.2339 198.083 16.1344 198.183 15.9953C198.361 15.2239 198.42 14.4296 198.358 13.6401V4.12143C198.358 3.63732 198.345 3.21209 198.319 2.84573C198.305 2.54948 198.259 2.25561 198.183 1.9691C198.15 1.86443 198.021 1.77283 197.8 1.68779C197.563 1.60312 197.319 1.53749 197.072 1.49152C196.871 1.44595 196.667 1.41966 196.461 1.41302C196.396 1.41302 196.364 1.31489 196.364 1.11208C196.347 0.963285 196.381 0.813188 196.461 0.686853L197.845 0.726104H199.431H200.977L203.316 0.647602C204.252 0.647602 205.058 0.588723 205.753 0.575639C206.448 0.562555 207.02 0.575639 207.482 0.575639C207.514 0.811153 207.566 1.09246 207.631 1.41302C207.696 1.73358 207.781 2.06723 207.884 2.47938C207.988 2.89153 208.034 3.21209 208.092 3.46069C208.151 3.70929 208.19 3.88592 208.203 3.99059C208.074 4.08629 207.914 4.13057 207.755 4.11489C207.54 4.11489 207.423 4.05601 207.41 3.93826C207.296 3.2355 206.923 2.60213 206.364 2.16535C205.791 1.88222 205.156 1.74945 204.519 1.77938H202.849C201.399 1.77938 200.672 1.89059 200.652 2.10648C200.61 2.37961 200.582 2.65474 200.568 2.93077C200.568 3.28404 200.529 3.70928 200.529 4.23918V8.21022C200.529 8.30835 200.886 8.36068 201.601 8.36068H202.901H204.051C204.198 8.36149 204.344 8.34168 204.486 8.30181C204.661 8.24023 204.839 8.18782 205.019 8.14479C205.188 8.11426 205.318 7.91801 205.409 7.55601C205.5 7.1962 205.578 6.90181 205.643 6.66629C205.643 6.54854 205.786 6.48965 206.02 6.48965C206.17 6.48037 206.32 6.52433 206.442 6.61395V11.3635C206.324 11.4441 206.181 11.4789 206.039 11.4616C205.825 11.4616 205.695 11.3962 205.643 11.2588C205.578 11.0233 205.519 10.827 205.467 10.657C205.415 10.4869 205.376 10.3495 205.344 10.2317C205.308 10.0875 205.244 9.95182 205.155 9.83265C205.09 9.77706 205.021 9.72675 204.947 9.68218C204.081 9.47982 203.189 9.41143 202.303 9.47938C201.107 9.47938 200.509 9.55134 200.509 9.70181V13.627C200.472 14.3949 200.547 15.164 200.73 15.9102C200.782 16.0803 201.348 16.1654 202.426 16.1654H203.622C204.688 16.24 205.759 16.0931 206.767 15.7336C207.108 15.5048 207.392 15.2005 207.599 14.8439C207.929 14.3395 208.177 13.7851 208.333 13.2018C208.372 13.0971 208.482 13.0513 208.684 13.0513C208.912 13.0141 209.145 13.0682 209.334 13.2018L209.1 13.8168C208.989 14.0915 208.885 14.3728 208.788 14.6541C208.69 14.9355 208.606 15.184 208.534 15.3869C208.437 15.6878 208.326 16.0411 208.209 16.414C208.114 16.705 208.038 17.0023 207.982 17.3037Z" fill="white"/>
<path d="M86.5474 41.2871C86.4945 41.2266 86.454 41.1561 86.4283 41.0797C86.4027 41.0034 86.3924 40.9226 86.398 40.8422C86.398 40.5609 86.4499 40.4235 86.5474 40.4235C87.0209 40.4185 87.4938 40.3879 87.964 40.3319C88.2743 40.2743 88.5804 40.1956 88.8802 40.0964C89.1071 40.0339 89.3178 39.9222 89.4975 39.7693C89.8354 39.4095 90.0108 38.5459 90.0303 37.1525C90.0758 34.8497 90.1148 32.7824 90.1668 30.9506C90.2188 29.1188 90.2578 27.6076 90.2968 26.4235C90.3357 25.2394 90.3617 24.4609 90.3617 24.1469C90.375 23.7462 90.3334 23.3455 90.2383 22.9562C90.1993 22.8385 90.0303 22.7338 89.7249 22.6488C89.3979 22.5544 89.066 22.4779 88.7307 22.4198C88.4583 22.3698 88.1824 22.3414 87.9055 22.3347C87.8275 22.3347 87.7885 22.1974 87.7885 21.916C87.7727 21.7584 87.8143 21.6003 87.9055 21.4712C88.3799 21.4712 88.8997 21.5235 89.4715 21.5628C90.0433 21.602 90.6282 21.6217 91.213 21.6217C91.5899 21.6217 91.9992 21.6217 92.4411 21.5759L93.9356 21.4712C94.0916 21.9073 96.041 26.8771 99.7838 36.3805C99.7972 36.3975 99.8139 36.4115 99.8329 36.4216C99.8519 36.4317 99.8728 36.4378 99.8943 36.4394C99.9295 36.4431 99.9648 36.433 99.9927 36.411C100.021 36.389 100.039 36.357 100.044 36.3217C101.01 34.0363 101.876 31.9537 102.643 30.074C103.41 28.1942 104.079 26.5173 104.651 25.0431L105.833 21.4712L107.386 21.5628C107.789 21.5628 108.088 21.5628 108.283 21.5628C108.894 21.5628 109.479 21.5628 110.031 21.5628C110.583 21.5628 111.103 21.5104 111.597 21.4712C111.648 21.6141 111.677 21.7642 111.682 21.916C111.682 22.1974 111.636 22.3347 111.539 22.3347H111.48C111.186 22.3512 110.896 22.4152 110.622 22.5245C110.337 22.6188 110.068 22.7555 109.823 22.9301C109.589 23.1067 109.466 23.774 109.466 24.9254L109.732 37.002C109.733 37.9342 109.885 38.86 110.181 39.7432C110.294 39.9034 110.46 40.019 110.648 40.0703C110.923 40.1727 111.205 40.2515 111.493 40.3058C111.707 40.3537 111.924 40.3843 112.143 40.3974C112.221 40.3974 112.266 40.5347 112.266 40.816C112.263 40.9664 112.241 41.1158 112.201 41.2609L109.862 41.1824C109.277 41.1824 108.888 41.1366 108.693 41.1366L105.145 41.2871C105.051 41.1469 105.009 40.9776 105.028 40.8095C105.028 40.5544 105.067 40.4235 105.145 40.4235C105.45 40.406 105.753 40.3555 106.048 40.2731C106.349 40.211 106.641 40.1121 106.919 39.9787C107.153 39.8151 107.276 39.3899 107.276 38.6703V37.0936L106.919 26.6263C106.915 26.3805 106.891 26.1355 106.847 25.8936C106.795 25.6254 106.743 25.3899 106.685 25.1805C106.626 24.9712 106.555 24.8665 106.477 24.8665C106.399 24.8665 106.386 24.9385 106.327 25.0759L100.148 39.959C99.7752 40.8095 99.4113 41.2347 99.056 41.2347L98.7896 41.1759L92.0447 23.9114C91.9862 26.7048 91.9148 29.2039 91.8368 31.3955C91.7588 33.5871 91.6938 35.3207 91.6418 36.6749C91.5899 38.0291 91.5704 38.7815 91.5704 38.9974C91.5482 39.2667 91.6095 39.5364 91.7458 39.7693C91.9151 39.9202 92.1179 40.0279 92.3371 40.0833C92.6622 40.195 92.9943 40.2847 93.3313 40.3516C93.5603 40.4031 93.7927 40.4381 94.0266 40.4562C94.0981 40.4562 94.1436 40.6002 94.1436 40.9011C94.1407 41.0425 94.121 41.1831 94.0851 41.3198L91.7458 41.2151C91.174 41.2151 90.8101 41.1693 90.6541 41.1693L86.5474 41.2871Z" fill="white"/>
<path d="M127.803 41.3132H125.854L123.034 41.2675L120.077 41.2217H117.718L114.138 41.3132C114.062 41.1666 114.032 40.9998 114.054 40.8357C114.054 40.5805 114.054 40.4497 114.138 40.4497C114.377 40.4388 114.614 40.4038 114.846 40.345C115.133 40.2766 115.415 40.1914 115.691 40.0899C115.887 40.0418 116.059 39.926 116.178 39.7628C116.315 39.5469 116.386 38.6114 116.386 36.9693V25.717C116.386 25.1413 116.386 24.6375 116.341 24.1992C116.323 23.8478 116.268 23.4992 116.178 23.159C116.139 23.0413 115.984 22.9301 115.717 22.8319C115.438 22.7295 115.151 22.6507 114.859 22.5964C114.622 22.5443 114.381 22.5137 114.138 22.5048C114.06 22.5048 114.021 22.3871 114.021 22.145C114 21.9685 114.041 21.79 114.138 21.6413C114.651 21.6413 115.197 21.6805 115.782 21.6871C116.367 21.6936 116.984 21.6871 117.653 21.6871C118.108 21.6871 118.719 21.6871 119.486 21.6871L122.267 21.5955L125.146 21.5039C125.964 21.5039 126.647 21.5039 127.199 21.5039C127.238 21.7787 127.303 22.1123 127.381 22.4983C127.459 22.8843 127.556 23.3095 127.673 23.7675C127.79 24.2254 127.855 24.6245 127.927 24.9254C127.998 25.2263 128.044 25.4291 128.057 25.5796C127.982 25.6391 127.897 25.683 127.805 25.7089C127.714 25.7347 127.618 25.7419 127.524 25.7301C127.271 25.7301 127.134 25.6647 127.115 25.5207C126.984 24.688 126.54 23.938 125.873 23.4273C125.195 23.0853 124.441 22.9253 123.684 22.9628H121.702C119.993 22.9628 119.103 23.0936 119.103 23.3488C119.103 23.6039 119.031 23.9179 118.999 24.3301C118.966 24.7422 118.953 25.259 118.953 25.8478V30.6104C118.953 30.7282 119.382 30.7871 120.253 30.7871H121.819C122.469 30.7871 122.943 30.7871 123.177 30.7871C123.353 30.7889 123.528 30.7646 123.697 30.7151C123.801 30.6759 124.015 30.617 124.346 30.5385C124.541 30.4927 124.691 30.2637 124.801 29.8385C124.912 29.4132 125.003 29.06 125.081 28.7787C125.081 28.6413 125.25 28.5693 125.529 28.5693C125.709 28.5521 125.888 28.6061 126.029 28.7198V34.346C125.891 34.4423 125.722 34.4841 125.555 34.4637C125.302 34.4637 125.139 34.3852 125.081 34.2282C125.003 33.9469 124.931 33.7114 124.879 33.5086L124.73 33.0048C124.683 32.8344 124.608 32.673 124.509 32.5273L124.255 32.3506C123.976 32.1936 122.956 32.1151 121.123 32.1151C119.7 32.1151 118.992 32.2002 118.992 32.3833V36.9628C118.95 37.876 119.04 38.7905 119.258 39.6777C119.323 39.874 119.993 39.9721 121.266 39.9721H122.689C124.505 39.9721 125.746 39.8042 126.413 39.4684C126.831 39.1651 127.172 38.766 127.407 38.3039C127.801 37.7009 128.097 37.0384 128.284 36.3413C128.323 36.2235 128.46 36.1647 128.7 36.1647C128.958 36.1332 129.218 36.1958 129.434 36.3413C129.376 36.5048 129.285 36.7469 129.155 37.074C129.025 37.4011 128.902 37.7282 128.785 38.0684C128.668 38.4086 128.57 38.6899 128.492 38.9319C128.369 39.2852 128.239 39.6974 128.102 40.1488C127.976 40.5295 127.876 40.9186 127.803 41.3132Z" fill="white"/>
<path d="M147.492 41.346C147.174 41.346 146.842 41.117 146.511 40.6917L135.048 24.3366V36.9955C135.012 37.9229 135.082 38.8514 135.256 39.7628C135.295 39.8413 135.464 39.9329 135.77 40.0441C136.094 40.1582 136.426 40.2479 136.764 40.3123C136.997 40.3633 137.234 40.3983 137.472 40.417C137.528 40.417 137.561 40.5347 137.57 40.7702C137.59 40.9413 137.577 41.1147 137.531 41.2805L135.204 41.1824C134.639 41.1824 134.282 41.1366 134.126 41.1366L130.727 41.2871C130.649 41.1529 130.617 40.9965 130.636 40.8422C130.636 40.5609 130.636 40.4235 130.727 40.4235C131.005 40.4117 131.281 40.3766 131.552 40.3188C131.894 40.2527 132.23 40.1631 132.56 40.0506C132.872 39.9394 133.047 39.8282 133.093 39.7104C133.341 38.7994 133.44 37.8536 133.385 36.9104V25.2198C133.411 24.4703 133.341 23.7205 133.177 22.9889C133.138 22.8712 132.969 22.7665 132.664 22.6815C132.337 22.5871 132.005 22.5106 131.669 22.4525C131.397 22.4026 131.121 22.3741 130.844 22.3675C130.766 22.3675 130.727 22.2366 130.727 21.9815C130.707 21.8132 130.749 21.6434 130.844 21.5039L132.748 21.5497H133.859H135.217C135.614 21.5497 135.945 21.5497 136.225 21.5039C136.593 22.1799 137.613 23.7326 139.285 26.1618C140.957 28.5911 143.279 31.8971 146.251 36.0796C146.31 35.6746 146.338 35.2656 146.335 34.8562V25.6058C146.369 24.7286 146.301 23.8504 146.134 22.9889C146.088 22.8712 145.913 22.7665 145.601 22.6618C145.27 22.5598 144.934 22.4768 144.594 22.4133C144.331 22.354 144.064 22.319 143.795 22.3086C143.717 22.3086 143.678 22.1908 143.678 21.9488C143.662 21.7911 143.703 21.633 143.795 21.5039C143.97 21.5039 144.269 21.5039 144.678 21.5497L146.03 21.6347C146.511 21.6675 146.927 21.6805 147.284 21.6805C147.797 21.6805 148.447 21.6805 149.234 21.5955C150.02 21.5104 150.455 21.5039 150.592 21.5039C150.629 21.6493 150.649 21.7986 150.65 21.9488C150.65 22.1908 150.611 22.3086 150.533 22.3086C150.286 22.3279 150.04 22.3673 149.799 22.4263C149.422 22.5048 149.071 22.5964 148.746 22.6946C148.421 22.7927 148.239 22.8908 148.2 22.9889C148.113 23.3721 148.054 23.7613 148.025 24.1534C147.986 24.6114 147.966 25.1413 147.966 25.7562V37.0609C147.966 38.2908 147.995 39.6799 148.051 41.2282C147.883 41.3296 147.686 41.371 147.492 41.346Z" fill="white"/>
<path d="M157.771 41.287C157.68 41.1578 157.638 40.9998 157.654 40.8421C157.654 40.5608 157.693 40.4234 157.771 40.4234C158.011 40.4171 158.25 40.3909 158.486 40.3449C158.769 40.3034 159.046 40.2287 159.311 40.1225C159.571 40.0243 159.714 39.9262 159.753 39.8281C159.845 39.4772 159.899 39.1176 159.916 38.7552C159.948 38.3169 159.961 37.7935 159.961 37.1785V26.4103C159.961 24.6832 159.877 23.6561 159.695 23.3421C159.513 23.0281 158.492 22.8972 156.504 22.8972C155.918 22.879 155.332 22.9428 154.763 23.087C154.361 23.2067 154.021 23.4787 153.814 23.8458C153.539 24.3826 153.332 24.9518 153.197 25.5402C153.151 25.6449 153.054 25.6907 152.898 25.6907C152.772 25.7048 152.644 25.6936 152.523 25.6577C152.401 25.6217 152.288 25.5618 152.189 25.4813L152.748 21.229C153.184 21.3271 153.567 21.4056 153.905 21.4645C154.196 21.5204 154.492 21.551 154.789 21.5561C156.205 21.5561 157.459 21.5561 158.544 21.615C159.63 21.6739 160.533 21.6739 161.261 21.6739C162.781 21.6739 164.081 21.6542 165.159 21.615C166.251 21.5757 167.109 21.5561 167.759 21.5561C168.055 21.551 168.351 21.5204 168.642 21.4645C168.98 21.4056 169.364 21.3271 169.799 21.229L170.358 25.4813C170.259 25.5618 170.146 25.6217 170.025 25.6577C169.903 25.6936 169.775 25.7048 169.65 25.6907C169.494 25.6907 169.39 25.6449 169.357 25.5402C169.236 24.9488 169.03 24.3781 168.746 23.8458C168.532 23.4826 168.192 23.2123 167.791 23.087C167.22 22.9433 166.632 22.8795 166.043 22.8972C163.977 22.8972 162.892 23.0412 162.794 23.3421C162.581 24.319 162.492 25.3192 162.528 26.3187V37.0608C162.506 37.9906 162.595 38.9197 162.794 39.8281C162.912 39.9594 163.066 40.0528 163.236 40.0963C163.504 40.198 163.78 40.2768 164.061 40.3318C164.275 40.3803 164.492 40.4109 164.711 40.4234C164.789 40.4234 164.828 40.5673 164.828 40.8683C164.825 41.0097 164.806 41.1502 164.77 41.287L162.437 41.1823C161.865 41.1823 161.501 41.1365 161.339 41.1365L157.771 41.287Z" fill="white"/>
<path d="M173.738 38.5456C172.826 37.6065 172.11 36.494 171.63 35.2731C171.15 34.0521 170.917 32.7471 170.943 31.4344C170.932 30.0897 171.184 28.756 171.684 27.5092C172.156 26.3226 172.841 25.2337 173.705 24.297C174.553 23.3804 175.574 22.6422 176.707 22.125C177.859 21.6033 179.109 21.3335 180.372 21.3335C181.636 21.3335 182.885 21.6033 184.037 22.125C185.173 22.6436 186.198 23.3815 187.052 24.297C188.853 26.2241 189.849 28.7751 189.833 31.4213C189.862 32.7331 189.63 34.0376 189.153 35.2585C188.675 36.4794 187.961 37.5924 187.052 38.5325C185.901 39.8171 184.415 40.7508 182.763 41.2279C181.204 41.6727 179.553 41.6727 177.994 41.2279C176.355 40.7487 174.882 39.8199 173.738 38.5456ZM180.885 40.2138C182.106 40.2275 183.288 39.7819 184.199 38.9643C185.144 38.1478 185.861 37.0969 186.279 35.9157C186.723 34.656 186.943 33.3272 186.929 31.9905C186.936 30.4587 186.677 28.9375 186.162 27.4961C185.682 26.1355 184.858 24.9246 183.77 23.983C182.714 23.0591 181.356 22.5606 179.956 22.583C178.771 22.5546 177.616 22.9616 176.707 23.7279C175.77 24.5394 175.048 25.5738 174.608 26.7372C174.106 28.02 173.855 29.3883 173.868 30.7671C173.862 32.2993 174.124 33.8205 174.641 35.2615C175.122 36.625 175.946 37.8398 177.032 38.7877C178.087 39.7268 179.452 40.2355 180.859 40.2138H180.885Z" fill="white"/>
<path d="M210.087 41.3458C207.349 41.3458 204.955 39.9174 202.906 37.0607C202.75 36.8383 202.549 36.5439 202.302 36.1645C202.055 35.785 201.607 35.1243 200.957 34.2019C200.639 33.7439 200.359 33.3645 200.112 33.0505C199.88 32.7592 199.587 32.5225 199.255 32.357C198.845 32.1786 198.401 32.0959 197.955 32.115C197.777 32.1094 197.6 32.1405 197.435 32.2065C197.305 32.2654 197.247 32.4028 197.247 32.6252V36.9953C197.197 37.8744 197.275 38.7562 197.481 39.6121C197.62 39.8199 197.823 39.9761 198.059 40.057C198.375 40.1986 198.707 40.304 199.047 40.371C199.299 40.4253 199.556 40.4603 199.813 40.4757C199.898 40.4757 199.937 40.6131 199.937 40.8944C199.932 41.0443 199.913 41.1933 199.878 41.3393C198.891 41.3 198.078 41.2542 197.435 41.2215C196.968 41.1842 196.5 41.1733 196.032 41.1888L192.425 41.3393C192.346 41.1724 192.317 40.9861 192.341 40.8028C192.341 40.5411 192.341 40.4168 192.425 40.4168C192.67 40.4103 192.914 40.3796 193.153 40.3252C193.432 40.2689 193.708 40.1946 193.978 40.1028C194.173 40.0608 194.346 39.9492 194.466 39.7888C194.602 39.5729 194.673 38.6374 194.673 36.9953V25.743C194.673 25.1673 194.674 24.6635 194.628 24.2252C194.613 23.8734 194.558 23.5245 194.466 23.185C194.427 23.0673 194.277 22.9561 194.011 22.8579C193.732 22.7563 193.445 22.6775 193.153 22.6224C192.914 22.5702 192.67 22.5396 192.425 22.5308C192.347 22.5308 192.308 22.4131 192.308 22.171C192.287 21.9945 192.328 21.816 192.425 21.6673L195.973 21.7262C196.545 21.7262 197.273 21.7262 198.072 21.6804C198.871 21.6346 199.592 21.6084 200.145 21.6084C201.196 21.6146 202.236 21.8372 203.199 22.2626C204.146 22.6536 204.973 23.2902 205.597 24.1075C206.201 24.9128 206.528 25.8947 206.528 26.9042C206.528 27.9137 206.201 28.8956 205.597 29.7009C204.959 30.622 204.085 31.3522 203.069 31.814C202.874 31.8925 202.809 31.9906 202.893 32.1084C203.756 34.0162 204.902 35.7809 206.292 37.342C208.185 39.4224 209.721 40.4626 210.899 40.4626C210.96 40.5935 210.991 40.7366 210.99 40.8813C210.994 41.0347 210.963 41.1869 210.899 41.3262C210.631 41.3714 210.357 41.378 210.087 41.3458ZM199.8 30.8131H200.541C201.063 30.7957 201.57 30.6301 202.003 30.3355C202.534 30.0099 202.979 29.5613 203.303 29.0271C203.656 28.4233 203.836 27.7325 203.823 27.0318C203.823 24.2754 202.443 22.8972 199.683 22.8972C198.986 22.8748 198.289 22.9452 197.611 23.1065C197.435 23.1458 197.331 23.4663 197.305 24.0748C197.279 24.6832 197.26 25.4486 197.26 26.3776V29.9822C197.234 30.5252 198.091 30.8131 199.8 30.8131Z" fill="white"/>
<path d="M219.711 1.39748L231.807 1.39748L231.807 6.19388C231.807 7.01148 231.642 7.68068 231.311 8.20148C230.987 8.72788 230.569 9.11708 230.06 9.36908C229.55 9.62668 229.024 9.75548 228.481 9.75548C227.814 9.75548 227.249 9.59588 226.784 9.27668C226.319 8.96308 226.005 8.53468 225.843 7.99148L226.263 7.99148C226.089 8.75308 225.728 9.32988 225.179 9.72188C224.631 10.1195 224.006 10.3183 223.306 10.3183C222.589 10.3183 221.962 10.1811 221.425 9.90668C220.887 9.63228 220.467 9.22348 220.165 8.68028C219.862 8.14268 219.711 7.47628 219.711 6.68108L219.711 1.39748ZM221.618 3.44708L221.618 6.42908C221.618 6.78188 221.688 7.09828 221.828 7.37828C221.973 7.65828 222.175 7.87668 222.433 8.03348C222.696 8.19588 223.007 8.27708 223.365 8.27708C223.69 8.27708 223.981 8.20708 224.239 8.06708C224.496 7.92708 224.701 7.72268 224.852 7.45388C225.009 7.18508 225.087 6.86308 225.087 6.48788L225.087 3.44708L221.618 3.44708ZM226.977 3.44708L226.977 6.16868C226.977 6.45988 227.033 6.72028 227.145 6.94988C227.257 7.17948 227.422 7.36148 227.641 7.49588C227.859 7.63028 228.128 7.69748 228.447 7.69748C228.867 7.69748 229.217 7.56308 229.497 7.29428C229.777 7.02548 229.917 6.65028 229.917 6.16868L229.917 3.44708L226.977 3.44708ZM219.711 11.9959L231.807 11.9959L231.807 19.8079L229.909 19.8079L229.909 14.0203L226.927 14.0203L226.927 18.7999L225.028 18.7999L225.028 14.0203L221.609 14.0203L221.609 19.8079L219.711 19.8079L219.711 11.9959ZM219.711 24.7297L229.909 24.7297L229.909 20.8153L231.807 20.8153L231.807 30.6685L229.909 30.6685L229.909 26.7541L219.711 26.7541L219.711 24.7297ZM219.711 30.8434L231.807 34.657L231.807 37.6222L219.711 41.4358L219.711 39.3526L230.564 35.8918L230.564 36.3454L219.711 32.9266L219.711 30.8434ZM222.332 32.9686L224.222 32.9686L224.222 39.319L222.332 39.319L222.332 32.9686Z" fill="#F10505"/>
</g>
<defs>
<clipPath id="clip0_947_2524">
<rect width="238" height="56" fill="white"/>
</clipPath>
</defs>
</svg>
